solid box
  facet normal 0 0 -1
    outer loop
      vertex 10 5 -3
      vertex 30 15 -3
      vertex 30 5 -3
    endloop
  endfacet
  facet normal 0 0 -1
    outer loop
      vertex 10 5 -3
      vertex 10 15 -3
      vertex 30 15 -3
    endloop
  endfacet
  facet normal 0 0 1
    outer loop
      vertex 10 5 3
      vertex 30 5 3
      vertex 30 15 3
    endloop
  endfacet
  facet normal 0 0 1
    outer loop
      vertex 10 5 3
      vertex 30 15 3
      vertex 10 15 3
    endloop
  endfacet
  facet normal -1 0 0
    outer loop
      vertex 10 5 -3
      vertex 10 5 3
      vertex 10 15 3
    endloop
  endfacet
  facet normal -1 0 0
    outer loop
      vertex 10 5 -3
      vertex 10 15 3
      vertex 10 15 -3
    endloop
  endfacet
  facet normal 1 0 0
    outer loop
      vertex 30 5 -3
      vertex 30 15 -3
      vertex 30 15 3
    endloop
  endfacet
  facet normal 1 0 0
    outer loop
      vertex 30 5 -3
      vertex 30 15 3
      vertex 30 5 3
    endloop
  endfacet
  facet normal 0 -1 0
    outer loop
      vertex 10 5 -3
      vertex 30 5 -3
      vertex 30 5 3
    endloop
  endfacet
  facet normal 0 -1 0
    outer loop
      vertex 10 5 -3
      vertex 30 5 3
      vertex 10 5 3
    endloop
  endfacet
  facet normal 0 1 0
    outer loop
      vertex 10 15 -3
      vertex 10 15 3
      vertex 30 15 3
    endloop
  endfacet
  facet normal 0 1 0
    outer loop
      vertex 10 15 -3
      vertex 30 15 3
      vertex 30 15 -3
    endloop
  endfacet
endsolid box